<svg width="32" height="32" viewBox="0 0 32 32" fill="none" xmlns="http://www.w3.org/2000/svg">
<path d="M16.8264 32C7.54857 32 0 24.4434 0 15.1549C0 8.72176 3.57706 2.94162 9.33575 0.0707594C9.59491 -0.0579576 9.90657 -0.00808822 10.1105 0.196107C10.3145 0.400302 10.367 0.712323 10.2398 0.971105C9.18901 3.10875 8.65655 5.40679 8.65655 7.79985C8.65655 16.3457 15.6006 23.2978 24.1367 23.2978C26.5533 23.2978 28.8709 22.7526 31.0269 21.6784C31.2868 21.5497 31.5978 21.5995 31.8017 21.8037C32.0064 22.0079 32.0582 22.3199 31.931 22.5787C29.0769 28.3892 23.2886 32 16.8264 32ZM8.24459 2.25423C3.94594 5.10892 1.34628 9.89436 1.34628 15.1549C1.34628 23.7001 8.29037 30.6522 16.8264 30.6522C22.1133 30.6522 26.9107 28.0253 29.7554 23.6819C27.9595 24.3221 26.0774 24.6456 24.1374 24.6456C14.8595 24.6456 7.31095 17.0884 7.31095 7.79985C7.31095 5.88594 7.62463 4.02864 8.24459 2.25423Z" fill="white"/>
</svg>
